<svg xmlns="http://www.w3.org/2000/svg" viewBox="0 0 360 360"><defs><filter id="s" x="-20%" y="-20%" width="140%" height="140%"><feDropShadow dx="0" dy="12" stdDeviation="8" flood-opacity=".28"/></filter><linearGradient id="b" x1="0" x2="0" y1="0" y2="1"><stop stop-color="#1b8fff"/><stop offset="1" stop-color="#0750a4"/></linearGradient></defs><g filter="url(#s)"><ellipse cx="178" cy="188" rx="92" ry="120" fill="#111d2c"/><ellipse cx="181" cy="210" rx="65" ry="83" fill="#fff"/><circle cx="145" cy="152" r="30" fill="#fff"/><circle cx="213" cy="152" r="30" fill="#fff"/><circle cx="153" cy="156" r="10" fill="#122033"/><circle cx="205" cy="156" r="10" fill="#122033"/><ellipse cx="178" cy="185" rx="23" ry="15" fill="#ff9e29"/><path d="M156 189 Q178 210 201 189" fill="none" stroke="#c76b1e" stroke-width="5" stroke-linecap="round"/><path d="M102 87 Q177 31 256 83 L240 121 Q179 96 119 122Z" fill="url(#b)"/><path d="M116 78 Q181 42 245 76" fill="none" stroke="#6ec5ff" stroke-width="8"/><rect x="145" y="49" width="71" height="35" rx="14" fill="#eaf8ff"/><text x="181" y="77" text-anchor="middle" font-size="32" font-weight="900" fill="#1261bd" font-family="Arial">P</text><path d="M97 213 Q63 239 78 291" fill="none" stroke="#0b438d" stroke-width="34" stroke-linecap="round"/><path d="M258 207 Q288 239 274 290" fill="none" stroke="#0b438d" stroke-width="34" stroke-linecap="round"/><path d="M107 210 Q180 252 251 208 L240 284 Q179 326 116 283Z" fill="url(#b)"/><path d="M221 215 L315 95" stroke="#7a461f" stroke-width="9" stroke-linecap="round"/><path d="M315 95 Q330 98 336 112" fill="none" stroke="#f2ca7c" stroke-width="5"/><path d="M156 314 Q134 335 97 323" fill="#ff9e29"/><path d="M203 314 Q225 335 262 323" fill="#ff9e29"/></g></svg>