<svg xmlns="http://www.w3.org/2000/svg" viewBox="0 0 128 128">
<defs><filter id="s" x="-20%" y="-20%" width="140%" height="140%"><feDropShadow dx="0" dy="5" stdDeviation="4" flood-color="#16466f" flood-opacity=".22"/></filter></defs>
<g filter="url(#s)" stroke="#72441b" stroke-width="4" stroke-linejoin="round"><path d="M15 65c17-25 53-31 78-9l20-15c-1 14-1 33 0 47L93 73c-25 22-61 17-78-8z" fill="#f5b64b"/><path d="M48 43l18-18 6 24M48 86l16 17 8-22" fill="#e58f2d"/><circle cx="33" cy="58" r="5" fill="#fff"/><circle cx="34" cy="58" r="2.5" fill="#10233f"/><path d="M51 58c6-6 13-6 19 0s13 6 19 0M51 74c6-6 13-6 19 0s13 6 19 0" fill="none" stroke="#fff0a8" stroke-width="3" stroke-linecap="round"/></g>
</svg>