<svg xmlns="http://www.w3.org/2000/svg" viewBox="0 0 128 128">
<defs><filter id="s" x="-20%" y="-20%" width="140%" height="140%"><feDropShadow dx="0" dy="5" stdDeviation="4" flood-color="#16466f" flood-opacity=".22"/></filter></defs>
<g filter="url(#s)" stroke="#0f3862" stroke-width="5" stroke-linecap="round" stroke-linejoin="round">
<path d="M70 20c-21 0-35 14-35 31 0 13 9 23 23 25 10 2 17-3 17-10 0-6-5-10-12-10h-9" fill="none"/>
<path d="M76 23c19 8 25 23 17 39-6 13-15 17-13 31 1 8 8 10 14 5 7-6 6-17-2-21" fill="none"/>
<path d="M61 75c-11 11-12 28 2 34 13 6 29-4 26-18" fill="none"/>
<circle cx="72" cy="38" r="5" fill="#10233f" stroke="none"/><path d="M83 46l16 4-16 6" fill="#ffcc54"/>
<path d="M52 72l-18 17M79 72l18 13" fill="none"/><path d="M51 82c-5 4-11 5-17 3 4-5 9-8 15-9" fill="#6ed0f5"/><path d="M94 82c5 4 11 5 17 3-4-5-9-8-15-9" fill="#6ed0f5"/>
</g>
</svg>