<svg xmlns="http://www.w3.org/2000/svg" viewBox="0 0 160 120" role="img" aria-label="아귀"><defs><linearGradient id="g" x1="0" x2="1" y1="0" y2="1"><stop stop-color="#2b335f"/><stop offset="1" stop-color="#10172f"/></linearGradient><filter id="s" x="-20%" y="-20%" width="140%" height="140%"><feDropShadow dx="0" dy="4" stdDeviation="4" flood-color="#0b1020" flood-opacity=".28"/></filter></defs><g filter="url(#s)"><path d="M28 70c8-28 33-45 65-38 25 5 41 22 45 40-13 20-40 31-72 25-20-4-34-13-38-27z" fill="url(#g)"/><path d="M52 74c17 10 43 11 65 2-10 16-36 23-58 15-6-2-11-7-7-17z" fill="#f8f5e7"/><path d="M101 28c4-16 14-22 25-21" fill="none" stroke="#17203e" stroke-width="5" stroke-linecap="round"/><circle cx="128" cy="8" r="8" fill="#9ff6ff" stroke="#fff" stroke-width="3"/><circle cx="110" cy="56" r="8" fill="#fff"/><circle cx="113" cy="57" r="4" fill="#111827"/><path d="M20 65 4 48l23 1M23 76 4 92l25-4" fill="#20294d"/><path d="M86 34 77 14l25 20M87 97l-12 20 30-15" fill="#29315a"/></g></svg>