<svg xmlns="http://www.w3.org/2000/svg" viewBox="0 0 160 120" role="img" aria-label="망령어"><defs><linearGradient id="g" x1="0" x2="1"><stop stop-color="#b9f3ff"/><stop offset="1" stop-color="#8d74ff"/></linearGradient><filter id="glow" x="-40%" y="-40%" width="180%" height="180%"><feGaussianBlur stdDeviation="3" result="b"/><feMerge><feMergeNode in="b"/><feMergeNode in="SourceGraphic"/></feMerge></filter></defs><g filter="url(#glow)" opacity=".95"><path d="M20 62c20-28 63-41 105-20 12 6 22 15 30 26-16 16-40 26-68 27-31 1-55-10-67-33z" fill="url(#g)" opacity=".82"/><path d="M18 62 2 42l28 6M20 66 3 88l30-9" fill="#9ee9ff" opacity=".55"/><circle cx="107" cy="58" r="7" fill="#ffffff"/><circle cx="109" cy="59" r="3" fill="#3b2d70"/><path d="M55 86c14 10 37 10 54 1" fill="none" stroke="#fff" stroke-width="5" stroke-linecap="round" opacity=".55"/><path d="M44 42c14-12 40-16 67-6" fill="none" stroke="#fff" stroke-width="5" stroke-linecap="round" opacity=".4"/></g></svg>